<svg viewBox="0 0 29 25" xmlns="http://www.w3.org/2000/svg"><path d="m6.9743 22.9613.3623-1.3523-.8069-3.9432 2.3598-1.8523s-2.3422-2.077-1.721-4.3952l.0517-.1932c-2.6459-1.3302-4.0675 2.43-3.6262 5.033l-3.091-.8283c1.0612-3.9603 3.4539-6.3215 5.579-5.752.5795.1552 1.1073.5037 1.5385.8263.4002-.721 1.3352-1.5057 3.4223-1.5676l3.538-1.2262c-.4156-2.6995 1.3116-8.759 7.6867-7.0507 1.6162.5366 2.4527 1.2784 2.4527 1.2784l-.8384.8106 2.7148 3.005-1.0196 1.4868-2.1888-1.1041c-1.9268.6225-3.4842-.5195-2.882-3.1534-1.2386 1.5316-.9248 3.065.3498 3.7172l-.5953 2.2216 2.925 4.9249c.2122.3674.1794.8762-.3364 1.2557l-3.043 2.0834-1.6559.3845-.8675-1.7853 1.7526-.3587 1.87-1.5695-1.6215-1.6767s-2.0252 2.149-4.7765 2.7577l-1.8454-2.772.8088 2.3907c.4104 1.5594-.39 3.0013-1.9753 3.5083l-2.5133.8795.531 3.041-.3882 1.449-2.125-.5695zm3.9603 1.0612.0725-1.43-1.0916-2.8807 1.901-.5259 1.207 3.2222.0361 2.1838zm13.7176-13.717 2.7993 2.303 1.0797 2.1527-2.2873.4224-.3915-1.2436-1.6212-1.6768-1.0625-.2847-1.466-2.2563z" fill="#3185ff"/></svg>