<svg version="1.1" id="logo-svg" xmlns="http://www.w3.org/2000/svg" x="0" y="0" viewBox="0 0 164.5 42" xml:space="preserve">
  <style>
    .st0{fill:#282828}.st1{fill:#ef6650}.st2{fill:#7268d8}.st3{fill:#e0b12b}
  </style>
  <g id="Neurok6ne">
    <g id="Neurokõne-demo" transform="translate(-81 -25)">
      <g id="Group-5" transform="translate(81 25)">
        <g id="TartuNLP">
          <ellipse id="Oval" class="st0" cx="92" cy="18.6" rx="1.9" ry="2"/>
          <ellipse id="Oval_1_" class="st0" cx="92" cy="14.6" rx="1.9" ry="2"/>
          <ellipse id="Oval_2_" class="st0" cx="92" cy="10.6" rx="1.9" ry="2"/>
          <ellipse id="Oval_3_" class="st0" cx="99.4" cy="10.6" rx="1.9" ry="2"/>
          <ellipse id="Oval_4_" class="st0" cx="103.2" cy="14.6" rx="1.9" ry="2"/>
          <ellipse id="Oval_5_" class="st0" cx="92" cy="6.6" rx="1.9" ry="2"/>
          <ellipse id="Oval_6_" class="st1" cx="95.9" cy="6.6" rx="1.9" ry="2"/>
          <ellipse id="Oval_7_" class="st0" cx="92" cy="2.6" rx="1.9" ry="2"/>
          <ellipse id="Oval_8_" class="st0" cx="107.2" cy="18.6" rx="1.9" ry="2"/>
          <ellipse id="Oval_9_" class="st0" cx="107.2" cy="14.6" rx="1.9" ry="2"/>
          <ellipse id="Oval_10_" class="st0" cx="107.2" cy="10.6" rx="1.9" ry="2"/>
          <ellipse id="Oval_11_" class="st0" cx="107.2" cy="6.6" rx="1.9" ry="2"/>
          <ellipse id="Oval_12_" class="st0" cx="107.2" cy="2.6" rx="1.9" ry="2"/>
          <ellipse id="Oval_13_" class="st0" cx="113.6" cy="18.6" rx="1.9" ry="2"/>
          <ellipse id="Oval_14_" class="st0" cx="117.5" cy="18.6" rx="1.9" ry="2"/>
          <ellipse id="Oval_15_" class="st0" cx="121.3" cy="18.6" rx="1.9" ry="2"/>
          <ellipse id="Oval_16_" class="st2" cx="113.6" cy="14.6" rx="1.9" ry="2"/>
          <ellipse id="Oval_17_" class="st0" cx="113.6" cy="10.6" rx="1.9" ry="2"/>
          <ellipse id="Oval_18_" class="st0" cx="113.6" cy="6.6" rx="1.9" ry="2"/>
          <ellipse id="Oval_19_" class="st0" cx="113.6" cy="2.6" rx="1.9" ry="2"/>
          <ellipse id="Oval_20_" class="st0" cx="126.9" cy="18.6" rx="1.9" ry="2"/>
          <ellipse id="Oval_21_" class="st1" cx="150" cy="18.6" rx="1.9" ry="2"/>
          <ellipse id="Oval_22_" class="st0" cx="126.9" cy="14.6" rx="1.9" ry="2"/>
          <ellipse id="Oval_23_" class="st0" cx="130.8" cy="14.6" rx="1.9" ry="2"/>
          <ellipse id="Oval_24_" class="st0" cx="134.6" cy="14.6" rx="1.9" ry="2"/>
          <ellipse id="Oval_25_" class="st2" cx="157.9" cy="14.6" rx="1.9" ry="2"/>
          <ellipse id="Oval_26_" class="st0" cx="126.9" cy="10.6" rx="1.9" ry="2"/>
          <ellipse id="Oval_27_" class="st0" cx="126.9" cy="6.6" rx="1.9" ry="2"/>
          <ellipse id="Oval_28_" class="st0" cx="142.3" cy="6.6" rx="1.9" ry="2"/>
          <ellipse id="Oval_29_" class="st3" cx="150.1" cy="6.6" rx="1.9" ry="2"/>
          <ellipse id="Oval_30_" class="st2" cx="153.9" cy="2.6" rx="1.9" ry="2"/>
          <ellipse id="Oval_31_" class="st0" cx="142.3" cy="10.6" rx="1.9" ry="2"/>
          <ellipse id="Oval_32_" class="st3" cx="154" cy="10.6" rx="1.9" ry="2"/>
          <ellipse id="Oval_33_" class="st1" cx="161.7" cy="10.6" rx="1.9" ry="2"/>
          <ellipse id="Oval_34_" class="st3" cx="126.9" cy="2.6" rx="1.9" ry="2"/>
          <ellipse id="Oval_35_" class="st0" cx="130.8" cy="2.6" rx="1.9" ry="2"/>
          <ellipse id="Oval_36_" class="st0" cx="134.6" cy="2.6" rx="1.9" ry="2"/>
          <ellipse id="Oval_37_" class="st0" cx="138.5" cy="14.6" rx="1.9" ry="2"/>
          <ellipse id="Oval_38_" class="st0" cx="138.4" cy="2.6" rx="1.9" ry="2"/>
          <g id="Group">
            <path id="Path" class="st0" d="M7.2 21.3V4.5H.8V.7h16.8v3.8h-6.4v16.8z"/>
            <path id="Shape" class="st0" d="M29.7 21.3l-1.1-2.7h-8.1l-1.1 2.7H15l8.9-21h1.4l8.8 21h-4.4zm-2.6-6.2l-2.6-7-2.6 7h5.2z"/>
            <path id="Shape_1_" class="st0" d="M52.3 21.3h-4.6L42.6 14h-3v7.3h-4.1V.7H43c2.1 0 3.8.6 5.1 1.8 1.3 1.2 2.1 3 2 4.8 0 1.2-.3 2.4-.9 3.5-.6 1-1.5 1.9-2.6 2.4l5.7 8.1zM39.6 4.4v5.9H43c.8 0 1.6-.2 2.2-.8.6-.6.8-1.4.8-2.2 0-.8-.3-1.6-.8-2.1-.6-.6-1.4-.9-2.2-.8h-3.4z"/>
            <path id="Path_1_" class="st0" d="M57.9 21.3V4.5h-6.3V.7h16.8v3.8H62v16.8z"/>
            <path id="Path_2_" class="st0" d="M70.3 12.8V.7h4.1v12.4c0 1.5.4 2.6 1.2 3.5 1.8 1.6 4.5 1.6 6.3 0 .8-.8 1.2-2 1.2-3.5V.7h4.1v12.1c0 2.7-.8 4.8-2.4 6.5-1.6 1.6-3.6 2.4-6 2.4-2.5 0-4.5-.8-6.1-2.4-1.6-1.7-2.4-3.8-2.4-6.5z"/>
          </g>
        </g>
        <path id="NEUROKÕNE" class="st0" d="M9.8 41H8.3l-5.7-8.8V41H1.1V29.6h1.5l5.7 8.8v-8.8h1.5V41zm11.1-5.3H16v4h5.7V41h-7.2V29.6h7.1v1.2H16v3.7h4.9v1.2zm12.7-6.1v7.7c0 1.1-.3 2-1 2.6-.7.7-1.6 1.1-2.7 1.1h-.4c-1.2 0-2.2-.3-3-1s-1.1-1.6-1.1-2.8v-7.8h1.5v7.7c0 .8.2 1.5.7 1.9s1.1.7 1.9.7c.8 0 1.5-.2 1.9-.7s.7-1.1.7-1.9v-7.7h1.5zm8.5 6.8h-2.7V41H38V29.6h3.8c1.3 0 2.3.3 3 .9s1 1.4 1 2.5c0 .7-.2 1.3-.6 1.9s-.9.9-1.6 1.2l2.7 4.8v.1h-1.6l-2.6-4.6zm-2.6-1.2h2.3c.7 0 1.3-.2 1.8-.6s.7-.9.7-1.5c0-.7-.2-1.2-.6-1.6s-1-.6-1.8-.6h-2.3v4.3zm19.1.5c0 1.1-.2 2.1-.6 2.9s-.9 1.5-1.6 1.9-1.5.7-2.4.7c-.9 0-1.7-.2-2.4-.7s-1.2-1.1-1.6-1.9-.6-1.8-.6-2.8V35c0-1.1.2-2.1.6-2.9s.9-1.5 1.6-1.9 1.5-.7 2.4-.7c.9 0 1.7.2 2.4.7s1.2 1.1 1.6 1.9.6 1.8.6 2.9v.7zm-1.5-.8c0-1.3-.3-2.4-.8-3.1-.5-.7-1.3-1.1-2.3-1.1-.9 0-1.7.4-2.2 1.1-.5.7-.8 1.7-.8 3v.8c0 1.3.3 2.3.8 3.1s1.3 1.1 2.3 1.1c1 0 1.7-.4 2.2-1.1s.8-1.7.8-3v-.8zm8.6.8l-1.4 1.4V41h-1.5V29.6h1.5v5.6l5.1-5.6h1.8l-4.5 5 4.8 6.4h-1.8l-4-5.3zm17.7 0c0 1.1-.2 2.1-.6 2.9s-.9 1.5-1.6 1.9-1.5.7-2.4.7c-.9 0-1.7-.2-2.4-.7s-1.2-1.1-1.6-1.9-.6-1.8-.6-2.8V35c0-1.1.2-2.1.6-2.9s.9-1.5 1.6-1.9 1.5-.7 2.4-.7c.9 0 1.7.2 2.4.7s1.2 1.1 1.6 1.9.6 1.8.6 2.9v.7zm-1.5-.8c0-1.3-.3-2.4-.8-3.1-.5-.7-1.3-1.1-2.3-1.1-.9 0-1.7.4-2.2 1.1-.5.7-.8 1.7-.8 3v.8c0 1.3.3 2.3.8 3.1s1.3 1.1 2.3 1.1c1 0 1.7-.4 2.2-1.1s.8-1.7.8-3v-.8zm-.3-8.1c0 .6-.2 1-.5 1.4s-.7.5-1.2.5c-.2 0-.4 0-.6-.1-.1 0-.3-.1-.5-.2l-.1-.1c-.3-.2-.4-.3-.5-.3h-.4c-.2 0-.4.1-.5.2s-.3.4-.3.6l-1-.1c0-.6.2-1 .5-1.4s.7-.5 1.2-.5c.2 0 .3 0 .5.1.1 0 .3.1.4.2l.1.1c.2.2.4.2.6.3s.3.1.4.1c.2 0 .4-.1.6-.3s.2-.4.2-.6l1.1.1zM96.4 41h-1.5l-5.7-8.8V41h-1.5V29.6h1.5l5.7 8.8v-8.8h1.5V41zm11-5.3h-4.9v4h5.7V41H101V29.6h7.1v1.2h-5.6v3.7h4.9v1.2z"/>
      </g>
    </g>
  </g>
</svg>
