<svg viewBox="0 0 164.5 42" xmlns="http://www.w3.org/2000/svg"><g><ellipse cx="92" cy="18.6" fill="#282828" rx="1.9" ry="2"/><ellipse cx="92" cy="14.6" fill="#282828" rx="1.9" ry="2"/><ellipse cx="92" cy="10.6" fill="#282828" rx="1.9" ry="2"/><ellipse cx="99.4" cy="10.6" fill="#282828" rx="1.9" ry="2"/><ellipse cx="103.2" cy="14.6" fill="#282828" rx="1.9" ry="2"/><ellipse cx="92" cy="6.6" fill="#282828" rx="1.9" ry="2"/><ellipse cx="95.9" cy="6.6" fill="#ef6650" rx="1.9" ry="2"/><ellipse cx="92" cy="2.6" fill="#282828" rx="1.9" ry="2"/><ellipse cx="107.2" cy="18.6" fill="#282828" rx="1.9" ry="2"/><ellipse cx="107.2" cy="14.6" fill="#282828" rx="1.9" ry="2"/><ellipse cx="107.2" cy="10.6" fill="#282828" rx="1.9" ry="2"/><ellipse cx="107.2" cy="6.6" fill="#282828" rx="1.9" ry="2"/><ellipse cx="107.2" cy="2.6" fill="#282828" rx="1.9" ry="2"/><ellipse cx="113.6" cy="18.6" fill="#282828" rx="1.9" ry="2"/><ellipse cx="117.5" cy="18.6" fill="#282828" rx="1.9" ry="2"/><ellipse cx="121.3" cy="18.6" fill="#282828" rx="1.9" ry="2"/><ellipse cx="113.6" cy="14.6" fill="#7268d8" rx="1.9" ry="2"/><ellipse cx="113.6" cy="10.6" fill="#282828" rx="1.9" ry="2"/><ellipse cx="113.6" cy="6.6" fill="#282828" rx="1.9" ry="2"/><ellipse cx="113.6" cy="2.6" fill="#282828" rx="1.9" ry="2"/><ellipse cx="126.9" cy="18.6" fill="#282828" rx="1.9" ry="2"/><ellipse cx="150" cy="18.6" fill="#ef6650" rx="1.9" ry="2"/><ellipse cx="126.9" cy="14.6" fill="#282828" rx="1.9" ry="2"/><ellipse cx="130.8" cy="14.6" fill="#282828" rx="1.9" ry="2"/><ellipse cx="134.6" cy="14.6" fill="#282828" rx="1.9" ry="2"/><ellipse cx="157.9" cy="14.6" fill="#7268d8" rx="1.9" ry="2"/><ellipse cx="126.9" cy="10.6" fill="#282828" rx="1.9" ry="2"/><ellipse cx="126.9" cy="6.6" fill="#282828" rx="1.9" ry="2"/><ellipse cx="142.3" cy="6.6" fill="#282828" rx="1.9" ry="2"/><ellipse cx="150.1" cy="6.6" fill="#e0b12b" rx="1.9" ry="2"/><ellipse cx="153.9" cy="2.6" fill="#7268d8" rx="1.9" ry="2"/><ellipse cx="142.3" cy="10.6" fill="#282828" rx="1.9" ry="2"/><ellipse cx="154" cy="10.6" fill="#e0b12b" rx="1.9" ry="2"/><ellipse cx="161.7" cy="10.6" fill="#ef6650" rx="1.9" ry="2"/><ellipse cx="126.9" cy="2.6" fill="#e0b12b" rx="1.9" ry="2"/><g fill="#282828"><ellipse cx="130.8" cy="2.6" rx="1.9" ry="2"/><ellipse cx="134.6" cy="2.6" rx="1.9" ry="2"/><ellipse cx="138.5" cy="14.6" rx="1.9" ry="2"/><ellipse cx="138.4" cy="2.6" rx="1.9" ry="2"/><path d="m7.2 21.3v-16.8h-6.4v-3.8h16.8v3.8h-6.4v16.8z"/><path d="m29.7 21.3-1.1-2.7h-8.1l-1.1 2.7h-4.4l8.9-21h1.4l8.8 21zm-2.6-6.2-2.6-7-2.6 7z"/><path d="m52.3 21.3h-4.6l-5.1-7.3h-3v7.3h-4.1v-20.6h7.5c2.1 0 3.8.6 5.1 1.8s2.1 3 2 4.8c0 1.2-.3 2.4-.9 3.5-.6 1-1.5 1.9-2.6 2.4zm-12.7-16.9v5.9h3.4c.8 0 1.6-.2 2.2-.8s.8-1.4.8-2.2-.3-1.6-.8-2.1c-.6-.6-1.4-.9-2.2-.8z"/><path d="m57.9 21.3v-16.8h-6.3v-3.8h16.8v3.8h-6.4v16.8z"/><path d="m70.3 12.8v-12.1h4.1v12.4c0 1.5.4 2.6 1.2 3.5 1.8 1.6 4.5 1.6 6.3 0 .8-.8 1.2-2 1.2-3.5v-12.4h4.1v12.1c0 2.7-.8 4.8-2.4 6.5-1.6 1.6-3.6 2.4-6 2.4-2.5 0-4.5-.8-6.1-2.4-1.6-1.7-2.4-3.8-2.4-6.5z"/><path d="m9.8 41h-1.5l-5.7-8.8v8.8h-1.5v-11.4h1.5l5.7 8.8v-8.8h1.5zm11.1-5.3h-4.9v4h5.7v1.3h-7.2v-11.4h7.1v1.2h-5.6v3.7h4.9zm12.7-6.1v7.7c0 1.1-.3 2-1 2.6-.7.7-1.6 1.1-2.7 1.1h-.4c-1.2 0-2.2-.3-3-1s-1.1-1.6-1.1-2.8v-7.8h1.5v7.7c0 .8.2 1.5.7 1.9s1.1.7 1.9.7 1.5-.2 1.9-.7.7-1.1.7-1.9v-7.7h1.5zm8.5 6.8h-2.7v4.6h-1.4v-11.4h3.8c1.3 0 2.3.3 3 .9s1 1.4 1 2.5c0 .7-.2 1.3-.6 1.9s-.9.9-1.6 1.2l2.7 4.8v.1h-1.6zm-2.6-1.2h2.3c.7 0 1.3-.2 1.8-.6s.7-.9.7-1.5c0-.7-.2-1.2-.6-1.6s-1-.6-1.8-.6h-2.3v4.3zm19.1.5c0 1.1-.2 2.1-.6 2.9s-.9 1.5-1.6 1.9-1.5.7-2.4.7-1.7-.2-2.4-.7-1.2-1.1-1.6-1.9-.6-1.8-.6-2.8v-.8c0-1.1.2-2.1.6-2.9s.9-1.5 1.6-1.9 1.5-.7 2.4-.7 1.7.2 2.4.7 1.2 1.1 1.6 1.9.6 1.8.6 2.9zm-1.5-.8c0-1.3-.3-2.4-.8-3.1s-1.3-1.1-2.3-1.1c-.9 0-1.7.4-2.2 1.1s-.8 1.7-.8 3v.8c0 1.3.3 2.3.8 3.1s1.3 1.1 2.3 1.1 1.7-.4 2.2-1.1.8-1.7.8-3zm8.6.8-1.4 1.4v3.9h-1.5v-11.4h1.5v5.6l5.1-5.6h1.8l-4.5 5 4.8 6.4h-1.8zm17.7 0c0 1.1-.2 2.1-.6 2.9s-.9 1.5-1.6 1.9-1.5.7-2.4.7-1.7-.2-2.4-.7-1.2-1.1-1.6-1.9-.6-1.8-.6-2.8v-.8c0-1.1.2-2.1.6-2.9s.9-1.5 1.6-1.9 1.5-.7 2.4-.7 1.7.2 2.4.7 1.2 1.1 1.6 1.9.6 1.8.6 2.9zm-1.5-.8c0-1.3-.3-2.4-.8-3.1s-1.3-1.1-2.3-1.1c-.9 0-1.7.4-2.2 1.1s-.8 1.7-.8 3v.8c0 1.3.3 2.3.8 3.1s1.3 1.1 2.3 1.1 1.7-.4 2.2-1.1.8-1.7.8-3zm-.3-8.1c0 .6-.2 1-.5 1.4s-.7.5-1.2.5c-.2 0-.4 0-.6-.1-.1 0-.3-.1-.5-.2l-.1-.1c-.3-.2-.4-.3-.5-.3h-.4c-.2 0-.4.1-.5.2s-.3.4-.3.6l-1-.1c0-.6.2-1 .5-1.4s.7-.5 1.2-.5c.2 0 .3 0 .5.1.1 0 .3.1.4.2l.1.1c.2.2.4.2.6.3s.3.1.4.1c.2 0 .4-.1.6-.3s.2-.4.2-.6zm14.8 14.2h-1.5l-5.7-8.8v8.8h-1.5v-11.4h1.5l5.7 8.8v-8.8h1.5zm11-5.3h-4.9v4h5.7v1.3h-7.2v-11.4h7.1v1.2h-5.6v3.7h4.9z"/></g></g></svg>