<svg version="1.1" id="Layer_1" xmlns="http://www.w3.org/2000/svg" x="0" y="0" viewBox="0 0 24.3 24.3" xml:space="preserve"><g id="Neurok6ne"><g id="Neurok6ne-1920x1080" transform="translate(-1438 -279)"><g id="Group-13" transform="translate(1378 270.9761)"><g id="icons8-snail-50" transform="translate(60 8.0239)"><path id="Shape" d="M14.7.2c-.9 0-1.6.7-1.6 1.6 0 .7.5 1.3 1.2 1.5.5 1 1.2 1.7 1.9 2.2-.6.6-.9 1.4-.9 2.2v.1c0 .8.2 1.4.3 2-1.2-2.5-3.8-4.3-6.8-4.3-2.3 0-4.3 1-5.7 2.5-1.2 1.3-1.9 3.1-1.9 5 0 2.4 1.1 4.5 2.8 5.9C.8 20.2.1 22.1.1 22.4v.2c0 .2.1.3.2.4.4.6 1.6.9 3.2.9h12.8c2.8 0 7.5-.8 7.5-6.1 0-3.8-2.2-6.2-2.2-10.1 0-.8-.3-1.6-.9-2.2.7-.5 1.3-1.1 1.8-2.1.7-.1 1.3-.8 1.3-1.6 0-.9-.7-1.6-1.6-1.6-.9 0-1.6.7-1.6 1.6 0 .3.1.6.2.8-.5.9-1.1 1.4-1.5 1.7-.2.1-.4.2-.5.2h-.7c-.6-.2-1.5-.6-2.1-1.8.2-.3.3-.6.3-.9 0-.9-.7-1.6-1.6-1.6zM8.8 7.7c3 0 5.4 2.4 5.4 5.4v.5c0 .3 0 .6-.1.8-.2.9-.6 1.1-1.2 1.3-.5.3-1 .3-1 .3.2-1.3.2-2.4.2-2.9 0-1-.5-1.8-1.1-2.4-.6-.5-1.4-.9-2.1-.9-1.2 0-2.2.6-2.7 1.3-.5.7-.5 1.4-.5 1.9 0 1.3.8 2.2.8 2.2.2.3.6.5 1 .4.4 0 .7-.3.9-.7-.1-.2-.1-.6-.4-.9 0 0-.3-.5-.3-.9 0-.1.1-.5.2-.7.1-.2.2-.4.9-.4.2 0 .5.1.7.3.2.2.4.4.4.8 0 .7 0 2.2-.3 3.5-.2.6-.4 1.1-.7 1.5-.2.2-.4.4-.7.4-2.7-.3-4.7-2.6-4.7-5.3 0-.3 0-.7.1-1 .2-1 .7-1.9 1.3-2.6.9-1.2 2.2-1.9 3.9-1.9zm11.1 2.9c.2 1.1.6 2.1.9 3 .5 1.5.9 2.7.9 4.2 0 .8 0 3.2-3.6 3.8 1-1 1.4-2.3 1.4-3.6 0-3.4-.9-4-1-7 .5-.1 1-.2 1.4-.4z" fill="#4db6ac"/></g></g></g></g></svg>